<svg width="100%" height="100%" viewBox="0 0 6303 3506" version="1.1" xmlns="http://www.w3.org/2000/svg" xmlns:xlink="http://www.w3.org/1999/xlink" xml:space="preserve" xmlnsSerif="http://www.serif.com/" style="fill-rule:evenodd;clip-rule:evenodd;stroke-linejoin:round;stroke-miterlimit:2;"><path d="M3704.59,3071.38c-42.917,-62.084 -122.084,-471.25 -122.084,-471.25c-15.833,-85.834 -137.5,-123.75 -137.5,-123.75c-218.333,-162.5 -238.75,-454.584 -238.75,-454.584c-35,-182.916 -156.25,-387.916 -156.25,-387.916c-5.416,-24.167 32.5,-110.417 32.5,-110.417c32.5,-107.5 -87.5,-76.667 -87.5,-76.667c-62.916,25.834 -157.5,-9.166 -157.5,-9.166c-35,-18.75 -261.25,-80.834 -261.25,-80.834c-7.916,0 -955.416,-333.333 -955.416,-333.333c-45.834,-35 -282.917,-91.667 -282.917,-91.667l-67.5,-56.666c-5.417,-21.667 -118.333,-112.917 -118.333,-112.917c-40.417,-75.417 -287.917,-322.917 -287.917,-322.917c-13.333,-32.5 -80.417,-95 -80.417,-95c0,0 18.75,-113.333 -54.583,-197.083c-0,-0 -46.25,-92.5 -31.667,-142.5c0,-0 -29.166,-31.667 -65,69.167c0,-0 -29.166,123.75 -16.666,182.5c-0,-0 -22.917,10.416 -16.667,25c-0,-0 -47.917,14.166 -75.417,40.416c0,0 -64.166,44.167 -102.916,52.5c-0,0 -52.084,17.084 -53.334,57.084c0,-0 -37.5,97.083 -137.083,124.583c-0,-0 -130,41.667 -162.083,59.583c-0,0 -61.25,18.75 -68.334,45c0,0 -1.25,45 39.167,65.417c-0,-0 54.167,98.333 178.75,60.833c-0,0 135.833,-67.916 196.667,-50c-0,0 -69.584,21.667 -156.25,92.917c-0,-0 -87.917,87.917 -120.834,98.75c0,-0 -25.416,27.5 45.834,-0c-0,-0 24.166,-17.5 40.416,-15.417l9.167,9.584c-0,-0 12.5,40 69.167,26.25c-0,-0 60.416,-40.417 166.25,-80c-0,-0 113.333,-48.334 213.333,42.916c-0,0 69.583,82.5 147.5,282.084c22.5,23.333 10.417,32.916 42.917,70c-0,-0 26.666,54.583 18.75,212.5c-0,-0 -42.917,269.166 188.333,460.416c-0,0 13.333,51.25 35,72.5c-0,0 37.5,91.667 37.5,123.75c-0,0 28.333,155.417 52.5,198.334c-0,-0 25.417,114.583 22.917,186.666c-0,0 17.5,255 39.166,295.417c0,-0 36.667,138.333 -22.083,182.917c-0,-0 -37.083,10 -66.25,12.5c-0,-0 -90.833,83.75 -56.667,110.833l37.084,7.5c-0,-0 -2.5,27.5 68.75,20c-0,-0 26.666,27.5 97.916,-9.167c0,0 28.334,-24.583 34.584,-42.5c7.916,5.417 23.75,10 55.416,6.667c0,-0 24.584,27.5 90.417,-9.583c-0,-0 34.583,-32.917 33.333,-50.417l21.667,-45.417c15,-10.833 3.75,-75.833 3.75,-75.833c-25.417,-121.25 15.417,-154.167 15.417,-154.167c42.083,21.667 16.666,-59.583 16.666,-59.583c-12.5,-24.167 -29.166,-108.333 -29.166,-108.333c-26.667,-132.917 -12.5,-417.917 -4.167,-543.75c68.75,-9.167 130.833,-23.75 130.833,-23.75c51.25,-21.667 645.834,-92.084 645.834,-92.084c172.5,-18.75 242.5,191.25 242.5,191.25c80.833,199.167 237.916,327.917 237.916,327.917c263.75,164.167 182.5,365 182.5,365c0,-0 -18.75,131.667 -102.5,144.167c0,-0 -81.25,-0 -98.333,22.083c-0,-0 -54.167,59.167 -19.583,68.75c-0,-0 -2.5,24.583 61.666,22.083c0,0 29.584,29.584 108.334,2.5c-0,0 75.833,-29.583 115,-117.916c-0,-0 59.583,-121.667 67.083,-138.75c-0,-0 -2.917,-50.417 6.25,-86.25c41.25,-164.584 40.417,-208.75 40.417,-208.75l88.75,45.833c217.916,107.5 213.75,220.833 213.75,220.833c91.666,180.417 35.833,280 35.833,280c-35,13.334 -29.583,70 -29.583,70c7.916,42.917 55.833,21.667 55.833,21.667c7.917,24.167 66.667,-1.25 66.667,-1.25c10.833,24.167 74.583,-0 74.583,-0c45.833,-8.75 17.917,-97.083 17.917,-97.083Zm-2273.33,-121.667c0,-0 -21.25,6.25 -43.75,10c-24.166,-115 18.334,-146.667 18.334,-146.667c45.833,21.667 18.333,-59.166 18.333,-59.166c-13.333,-24.167 -31.667,-107.5 -31.667,-107.5c-20.833,-95.417 -18.75,-270 -12.5,-407.084c5,17.5 10,32.5 15,42.084c0,-0 23.334,115.416 21.25,187.5c0,-0 16.25,256.666 36.25,297.083c-0.416,-0 33.334,139.583 -21.25,183.75Z" style="fill-rule:nonzero;"/><path d="M5269.59,1196.02c0,0 -54.222,-11.96 -102.33,-24.984c-0,-0 -29.503,9.568 -38.54,-31.364c-0,0 -5.05,-21.795 10.897,-39.869c0,0 -4.252,-51.564 -38.274,-53.69c-0,-0 -20.466,-13.556 -45.451,-47.843c0,-0 -83.459,-95.951 -219.811,-125.455c0,0 -60.601,-7.973 -73.359,-31.363c0,-0 -45.451,-86.383 -163.729,-18.074c0,-0 -70.169,87.446 -152.299,149.907c-0,0 -28.972,67.246 111.367,-22.858c0,0 -6.911,27.377 0,47.843c0,-0 -204.661,165.855 -229.646,341.013c0,0 -31.895,22.858 -40.932,54.488c0,-0 -40.932,22.858 -74.954,95.42c0,-0 -27.376,72.827 -56.879,97.812c-0,-0 -43.059,34.021 -36.414,97.812c-0,-0 -67.246,81.598 -95.686,103.925c0,-0 -138.478,121.999 -187.118,266.591c-0,-0 -107.912,221.672 -138.479,350.05c0,-0 -45.982,98.609 -60.069,120.936c-0,-0 -37.477,53.956 -35.351,84.522c0,0 -44.653,85.586 -28.439,136.352c-0,0 -34.554,89.573 -18.34,128.113c-0,-0 -32.427,78.94 -22.327,121.999c0,-0 -22.327,2.126 -22.327,51.032c0,0 -3.986,24.453 28.44,50.767c0,-0 85.586,79.472 93.56,115.886c-0,-0 2.126,44.653 32.426,69.106c0,0 6.114,38.54 18.34,0c0,0 36.68,28.44 62.993,22.327c0,-0 14.353,36.679 24.453,-2.127l22.327,-6.113c-0,0 8.24,46.78 18.34,-12.226c-0,-0 18.339,-75.22 -26.58,-128.113c0,0 -65.119,-65.119 -93.559,-67.246l-18.34,-22.326c0,-0 -3.987,-12.227 46.78,-0c-0,-0 146.452,8.505 215.558,-56.614c0,-0 -20.997,21.263 17.809,33.49c-0,-0 114.291,1.594 218.216,3.189c-9.568,64.322 -0.266,114.026 -0.266,114.026c-8.505,21.529 4.253,63.258 4.253,63.258c-13.024,43.059 1.329,97.547 1.329,97.547l-2.924,61.664c0,104.722 56.083,84.788 56.083,84.788c18.605,38.806 21.529,2.924 21.529,2.924c8.505,20.2 51.564,17.276 51.564,17.276c24.453,40.135 24.453,-10.1 24.453,-10.1c18.605,38.806 24.453,0 24.453,0c17.276,-8.505 31.629,-35.882 31.629,-35.882l13.024,5.847c4.253,-10.1 -4.253,-38.805 -4.253,-38.805c1.329,-22.859 -31.097,-58.741 -31.097,-58.741c-2.393,-13.555 -49.97,-77.346 -49.97,-77.346c-18.073,-34.021 -27.376,-122.796 -27.376,-122.796c6.91,-34.022 2.392,-93.294 2.392,-93.294l-0.266,-8.505c18.871,0.266 33.49,0.797 42.261,1.063c0,-0 55.019,31.629 89.041,27.377c0,-0 35.351,18.605 29.769,-2.924c-5.848,-21.529 1.329,-5.847 1.329,-5.847c-0,-0 30.035,21.529 48.906,7.176c-0,-0 34.553,22.858 27.377,-7.176c-0,-0 22.858,25.781 21.529,2.923c-0,0 4.784,-3.189 9.303,-8.239c-7.177,22.06 5.05,61.398 5.05,61.398c-13.024,43.058 1.329,97.546 1.329,97.546l-2.924,61.664c-0,104.723 56.082,84.788 56.082,84.788c18.606,38.806 21.53,2.924 21.53,2.924c8.505,20.2 51.564,17.277 51.564,17.277c24.453,40.134 24.453,-10.1 24.453,-10.1c18.605,38.805 24.453,-0 24.453,-0c17.276,-8.506 31.629,-35.883 31.629,-35.883l13.024,5.848c4.253,-10.1 -4.253,-38.806 -4.253,-38.806c1.329,-22.858 -31.098,-58.74 -31.098,-58.74c-2.392,-13.556 -49.969,-77.346 -49.969,-77.346c-18.074,-34.022 -27.376,-122.797 -27.376,-122.797c6.91,-34.021 2.392,-93.293 2.392,-93.293l-2.392,-70.436c13.555,-145.389 68.308,-499.957 68.308,-499.957c-4.518,-40.932 2.393,-74.954 2.393,-74.954c45.45,-22.858 106.849,-222.735 106.849,-222.735c40.932,-97.812 -11.43,-218.216 -11.43,-218.216c13.556,-61.399 -65.916,-259.149 -65.916,-259.149c15.947,-40.932 2.392,-86.383 2.392,-86.383c-0,0 27.377,-38.54 45.45,-31.895c0,-0 77.346,15.947 115.886,-18.074c0,-0 24.985,-4.519 54.488,-0c0,-0 38.54,2.658 52.361,-2.126c0,-0 104.457,6.644 136.353,-11.695c-0,-0 111.367,-2.393 131.833,-74.954c0,-0 33.224,-59.006 5.848,-95.42l10.631,-54.488c0,0.532 6.114,-44.919 -55.285,-42.527Zm-716.313,1831.32c-12.758,-22.327 -36.148,-55.286 -66.714,-61.665c-0,0 -79.473,-31.629 -104.989,-30.034l-87.712,-26.845c2.127,-16.214 4.253,-33.49 6.379,-51.298c28.706,-3.456 84.788,-10.898 98.61,-18.074c-0,-0 119.341,-30.035 99.141,-136.353l-40.135,-89.306c-0,-0 67.511,-28.706 83.193,-51.564c4.785,-7.176 11.429,147.781 11.429,147.781c2.924,30.035 11.429,203.864 11.429,203.864c-10.897,44.653 -11.96,85.585 -10.631,113.494Z" style="fill:#1a1a1a;fill-rule:nonzero;"/><path d="M3010.95,1719.25c17.567,38.711 49.772,46.519 49.772,46.519c-41.964,-25.7 -73.844,-130.449 -73.844,-130.449l27.325,20.82c-48.145,-80.351 -17.566,-214.052 -17.566,-214.052l27.326,46.519c-24.073,-75.797 14.639,-157.774 14.639,-157.774l13.012,33.832c-9.759,-64.411 22.446,-86.857 22.446,-86.857c0,13.012 9.759,25.699 9.759,25.699c48.146,70.917 54.652,238.125 54.652,238.125c46.519,167.533 159.4,276.837 159.4,276.837l-6.506,-20.82c41.965,51.398 114.183,51.398 114.183,51.398l-27.326,-11.385c125.569,6.506 391.02,90.11 391.02,90.11c13.012,-11.386 66.037,-11.386 66.037,-11.386c289.849,-74.17 455.431,-38.712 455.431,-38.712c173.714,30.579 383.537,34.483 383.537,34.483c161.027,-25.699 376.055,-7.157 376.055,-7.157c170.461,8.133 234.872,80.351 234.872,80.351c25.699,-6.506 154.521,69.291 154.521,69.291c41.965,-0 123.942,53.025 123.942,53.025c0,-6.506 -13.012,-15.94 -13.012,-15.94c62.784,14.639 98.243,61.157 98.243,61.157c1.626,-11.385 -9.759,-24.072 -9.759,-24.072c43.591,22.446 70.917,99.869 70.917,99.869c15.94,-1.626 46.518,33.832 46.518,33.832c17.567,-9.759 72.544,17.567 72.544,17.567l-4.88,-17.567c9.76,0 33.832,20.82 33.832,20.82c0,-9.759 -14.638,-20.82 -14.638,-20.82c32.205,4.88 90.435,55.302 90.435,55.302c-0,0 85.231,49.772 115.809,65.712c0,0 59.532,32.206 80.351,114.183c0,0 13.013,61.158 32.206,73.845c-0,0 9.759,27.326 -17.567,53.025c0,0 -4.879,40.989 37.085,76.122c0,0 75.797,73.52 90.11,100.845c0,0 59.532,45.218 11.386,72.544c0,-0 -40.338,24.073 -43.591,37.085c-0,-0 -32.206,81.977 -168.835,25.699c0,0 -19.193,-5.205 -35.458,-0.325c-0,-0 -40.338,19.844 -101.496,-64.086c-0,0 -28.952,-32.53 -56.278,-30.904c-0,0 -81.978,-22.446 -86.857,-26.024l22.771,-0c0,-0 -137.279,-46.845 -164.605,-70.917c-0,-0 8.132,-0.326 19.193,-1.952c-0,-0 -8.133,-3.579 -19.193,-21.145c-0,-0 -67.664,-8.133 -67.664,-17.892c-0,-22.446 -11.386,38.711 -11.386,38.711c33.832,9.76 159.401,80.351 159.401,80.351l127.195,48.146c53.025,17.566 86.857,59.531 86.857,59.531c59.531,70.917 159.075,120.364 159.075,120.364c33.182,16.59 51.073,35.784 44.567,71.893c0,-0 12.362,29.603 -4.879,35.784c-0,-0 -11.061,13.662 -19.844,14.964c-0,-0 -8.783,5.855 -6.832,-14.639c0,-0 -3.903,1.952 -12.036,1.952c-2.602,8.132 -7.807,16.916 -17.566,15.614c-0,0 -10.085,3.253 -2.928,-15.94c-0,0 -41.314,20.169 -84.905,-30.253c-0,-0 -83.93,-77.423 -101.822,-92.062c0,-0 -45.217,13.012 -75.796,-37.085c-0,-0 -41.965,-46.519 -104.749,-37.085c-0,-0 -135.328,-14.639 -178.594,-37.085c0,-0 38.712,1.626 45.218,-1.627c-0,0 -175.341,-20.82 -204.293,-45.218l17.566,-3.253c0,0 -63.435,-18.867 -103.122,-26.35c-0,0 -59.531,-21.795 -32.206,-91.086c0,0 -22.446,-37.085 -28.952,-56.278c0,0 -99.869,-17.566 -144.762,6.506c0,0 -119.062,35.459 -146.388,32.206c0,-0 20.82,-6.506 27.326,-12.687c-0,-0 -85.231,20.819 -90.11,12.687c-0,-0 -44.893,49.772 -53.025,64.411c-0,-0 -88.809,352.308 -83.93,514.636c0,-0 -2.927,43.266 14.964,66.688c21.145,11.06 79.05,6.181 74.496,39.687c-0,0 25.374,19.194 13.663,33.182c-0,-0 -1.627,5.53 -7.157,1.952c3.253,7.156 4.229,15.614 -2.602,20.819c-0,0 -4.88,9.434 -13.338,-9.434c-0,0 -2.277,3.579 -9.434,7.808c1.952,8.458 1.627,18.542 -7.482,22.446c-0,-0 -7.157,7.807 -10.41,-12.362c0,0 -28.952,15.94 -91.737,-6.181c-8.132,-1.301 -23.096,-4.554 -32.53,-6.831c-0,-0 -20.495,-11.711 -22.121,-37.41c-0,-0 -1.627,-40.339 -9.759,-54.652c-0,-0 -16.266,-11.386 -9.76,-57.905c0,0 -9.434,-364.995 -15.614,-406.959c-0,-0 -10.085,-180.221 19.843,-209.173l-23.422,9.434c15.94,-9.759 24.073,-66.037 24.073,-66.037l-13.338,14.638c28.302,-38.711 -23.422,-54.651 -23.422,-54.651c-35.458,1.626 -91.736,-13.012 -91.736,-13.012l19.193,-9.76c-61.158,-6.506 -120.689,-32.205 -120.689,-32.205l45.217,-11.386c-32.205,6.506 -118.412,-6.181 -118.412,-6.181l20.17,-8.458c-78.725,-24.072 -84.255,35.459 -84.255,35.459c3.253,114.183 -245.607,196.485 -245.607,196.485c-93.363,38.712 -114.183,66.038 -114.183,66.038c-37.085,30.579 -11.386,57.905 -11.386,57.905c9.759,24.072 154.521,132.074 154.521,132.074c73.52,48.471 116.46,192.582 116.46,192.582c0,23.748 31.23,72.869 -0.976,84.58c0,0 -5.53,31.555 -23.422,27.326c0,0 -5.53,1.301 -4.879,-5.53c-4.88,6.181 -11.711,11.06 -19.844,7.482c-0,-0 -10.735,-0 2.277,-15.94c0,-0 -4.229,-0.325 -11.06,-4.554c-6.832,5.53 -15.615,10.084 -23.423,3.903c0,0 -10.409,-2.602 6.181,-14.964c0,0 -38.711,-9.434 -48.471,-75.146c0,0 -17.566,-46.194 -41.964,-97.592c-0,-0 -0.651,-0.651 -1.952,-1.627c-11.711,5.856 -28.627,4.229 -43.917,-35.133c-72.543,-58.23 -207.871,-166.883 -235.847,-189.003c-0,-0 -45.869,-29.929 -56.279,-59.206c-36.434,32.53 -69.615,60.507 -90.435,73.519c0,0 -140.207,96.616 -179.244,211.45c-0,-0 -30.254,91.411 -33.832,105.074c-0,0 -19.519,59.857 -2.603,82.954c20.169,11.06 75.472,6.18 70.917,39.687c0,0 24.398,19.193 13.013,33.181c-0,0 -1.302,5.531 -6.832,1.952c2.928,7.157 4.229,15.615 -2.602,20.82c-0,-0 -4.555,9.434 -12.687,-9.434c-0,-0 -2.277,3.578 -8.784,7.807c1.627,8.458 1.627,18.543 -7.156,22.447c-0,-0 -6.832,7.807 -10.085,-12.362c0,-0 -20.82,15.94 -80.676,-6.181c-7.808,-1.301 -11.711,-4.554 -20.82,-6.831c0,-0 -29.928,-11.712 -31.229,-37.411c-0,0 9.108,-54.651 1.301,-68.965c-3.904,-2.928 -25.374,-11.386 -9.434,-57.905c-0,0 45.218,-121.665 69.29,-247.884c14.639,-77.748 47.821,-89.134 47.821,-89.134c110.929,-75.797 172.413,-321.078 172.413,-321.078c-14.639,19.193 -30.579,17.566 -30.579,17.566c35.458,-1.626 38.711,-182.172 38.711,-182.172c-3.253,2.928 -26.35,5.205 -26.35,5.205c19.193,-9.759 25.049,-48.796 25.049,-48.796c-9.759,18.868 -32.205,7.807 -32.205,7.807c32.205,-7.807 55.627,-115.484 55.627,-115.484c5.53,-67.664 58.881,-156.147 58.881,-156.147c-0,-46.519 -54.652,-54.652 -54.652,-54.652l30.579,3.253c-40.338,-37.085 -99.869,-32.205 -99.869,-32.205l32.205,-13.013c-43.591,8.133 -164.28,-13.012 -164.28,-13.012l46.519,-8.133c-30.579,6.506 -152.895,-14.639 -152.895,-14.639l45.218,-6.506c-123.942,-10.084 -229.667,-122.315 -248.209,-143.135c29.603,31.555 100.194,44.893 100.194,44.893c-105.725,-24.399 -152.244,-153.22 -152.244,-153.22Zm825.63,954.452c0,-0 -57.904,25.048 -86.206,83.604c40.663,-28.953 81.327,-62.459 86.206,-83.604Z" style="fill:#404040;fill-rule:nonzero;"/><path d="M1743.3,2302.08c-0,-0 -40.447,-19.824 -54.675,12.789c0,0 -50.038,37.089 -67.464,58.831c0,0 -58.831,44.763 -41.405,94.801c-0,0 -6.555,27.178 7.673,52.277c0,-0 2.238,11.99 -10.871,17.425l-32.932,16.467c-0,-0 -30.535,-6.555 -25.099,23.98c-0,-0 -3.837,19.663 4.476,22.861c-0,-0 4.156,23.98 18.385,31.653c-0,0 32.772,7.674 45.881,5.436l18.545,0.32l-28.297,30.215c0,-0 -11.99,1.119 -17.425,10.871c-0,-0 -27.337,22.861 -16.306,39.327c-0,-0 16.306,7.673 27.337,-0c-0,-0 10.871,5.116 -6.555,22.541c0,0 -37.089,22.541 -20.782,55.314l7.194,0c-0,0 -8.314,26.218 0.479,52.436l6.555,-8.313c-0,0 -5.436,41.726 14.228,65.866l2.877,-0c0,-0 13.429,59.15 58.192,87.447c0,-0 31.654,82.651 69.862,86.008c-0,0 15.507,42.365 33.892,43.484c-0,0 9.752,7.514 7.514,17.426l9.751,-6.555c0,0 6.555,11.99 0,17.426c0,-0 23.98,14.228 29.416,-0c-0,-0 4.316,16.306 16.306,15.187c0,0 14.229,42.525 39.328,74.178c-0,0 21.742,85.05 39.327,101.356c-0,0 14.228,62.348 -6.555,70.022c0,-0 -23.98,-11.031 -43.643,18.385c-0,-0 -22.222,41.405 22.541,41.405c-0,0 16.626,14.228 51.637,7.674c0,-0 33.732,-2.238 41.406,-28.297c-0,0 21.742,-30.534 22.861,-44.763c-0,0 17.425,-40.286 17.425,-54.514c0,-0 9.752,-40.287 8.793,-51.318c-0,0 15.187,44.763 28.296,70.822c0,-0 13.109,47.96 -7.673,58.831c-0,-0 -26.219,-4.796 -46.841,24.619c-0,0 -14.229,35.331 15.986,36.77c0,-0 16.786,15.986 46.042,3.517c0,-0 18.704,18.225 54.675,3.037l3.357,-4.796c-0,0 27.177,-15.347 29.255,-38.208c0,-0 21.742,-39.327 18.545,-55.634c0,0 14.228,-6.554 16.306,-16.306c0,-0 -13.109,1.119 -3.197,-7.674c0,0 62.188,-44.763 62.188,-98.158c0,-0 21.742,-58.831 0,-88.407c0,0 7.674,-13.109 -18.544,-34.851c-0,0 71.94,-4.316 93.842,-26.218c-0,0 58.831,106.791 147.237,147.238c0,-0 9.752,54.514 21.742,56.752c0,0 14.228,61.07 -6.554,70.822c-0,-0 -43.644,14.228 -34.851,41.405c-0,0 11.99,17.426 40.286,11.99c0,0 16.307,9.752 51.317,3.197c0,0 8.793,20.783 44.763,16.307c0,-0 23.98,8.793 50.199,2.238c-0,0 40.286,-14.228 51.317,-44.763c-0,0 15.347,-25.099 10.871,-63.307c-0,-0 -4.157,-33.412 -1.599,-52.596c0.48,-3.837 1.279,-7.194 2.398,-9.433l3.837,11.991c-0,-0 1.599,-40.287 6.714,-52.277l0,14.388c0,0 19.824,-44.923 22.062,-59.151l5.595,11.99c0,0 56.753,-64.266 44.763,-137.485l7.674,25.099c-0,-0 33.892,-62.189 19.663,-129.812l8.793,25.099c0,-0 32.773,-94.801 -56.753,-207.188l15.348,7.674c-0,-0 -56.753,-138.445 -172.337,-195.198c-0,0 9.752,-45.882 -13.109,-64.266c-0,-0 22.861,16.306 26.218,35.97c-0,-0 -9.752,-46.841 -22.861,-61.07c-0,0 28.296,16.307 33.732,39.328c-0,-0 33.732,-119.901 -62.188,-177.772c-0,-0 43.643,13.109 59.95,58.831c-0,-0 4.316,-58.831 -33.732,-97.04l27.337,21.742c0,0 -16.306,-68.743 -111.267,-67.624c-0,0 -99.278,-17.425 -152.673,35.971c-0,-0 14.867,-22.861 24.619,-28.297c0,0 -103.913,3.197 -119.261,75.297l0,-22.381c0,0 -49.718,32.613 -37.728,68.583l-9.592,-14.228c-0,-0 -9.752,41.405 24.14,63.307c-0,0 -41.406,-17.425 -59.951,-15.187c0,-0 -30.534,-28.297 -57.712,-31.654c0,0 -26.218,-44.763 -65.385,-50.198c-0,-0 -43.644,-47.96 -88.407,-57.872c0,0 -78.494,-78.495 -175.534,-38.208l-11.19,4.796Z" style="fill:#666;fill-rule:nonzero;"/></svg>