<svg width="100%" height="100%" viewBox="0 0 63 63" version="1.1" xmlns="http://www.w3.org/2000/svg" xmlnsXlink="http://www.w3.org/1999/xlink" xml:space="preserve" xmlnsSerif="http://www.serif.com/" style="fill-rule:evenodd;clip-rule:evenodd;stroke-linejoin:round;stroke-miterlimit:2;"><path d="M20.833,0c-4.602,0 -8.333,3.731 -8.333,8.333l-0,4.167c-0,4.602 3.731,8.333 8.333,8.333c4.603,0 8.334,-3.731 8.334,-8.333l-0,-4.167c-0,-4.602 -3.731,-8.333 -8.334,-8.333Z" style="fill:#303030;fill-rule:nonzero;"/><path d="M41.667,0c-4.603,0 -8.334,3.731 -8.334,8.333l0,4.167c0,4.602 3.731,8.333 8.334,8.333c4.602,0 8.333,-3.731 8.333,-8.333l0,-4.167c0,-4.602 -3.731,-8.333 -8.333,-8.333Z" style="fill:#303030;fill-rule:nonzero;"/><path d="M8.333,20.833c-4.602,0 -8.333,3.731 -8.333,8.334l0,2.083c0,4.602 3.731,8.333 8.333,8.333c4.603,0 8.334,-3.731 8.334,-8.333l-0,-2.083c-0,-4.603 -3.731,-8.334 -8.334,-8.334Z" style="fill:#303030;fill-rule:nonzero;"/><path d="M54.167,20.833c-4.603,0 -8.334,3.731 -8.334,8.334l0,2.083c0,4.602 3.731,8.333 8.334,8.333c4.602,0 8.333,-3.731 8.333,-8.333l0,-2.083c0,-4.603 -3.731,-8.334 -8.333,-8.334Z" style="fill:#303030;fill-rule:nonzero;"/><path d="M40.053,32.412c-4.562,-5.539 -13.044,-5.539 -17.606,0l-12.158,14.763c-5.033,6.112 -0.685,15.325 7.233,15.325c1.131,0 2.247,-0.263 3.258,-0.769l1.499,-0.75c5.647,-2.823 12.295,-2.823 17.942,0l1.499,0.75c1.011,0.506 2.127,0.769 3.258,0.769c7.918,0 12.266,-9.213 7.233,-15.325l-12.158,-14.763Z" style="fill:#303030;fill-rule:nonzero;"/></svg>