<svg width="100%" height="100%" viewBox="0 0 7793 5594" version="1.1" xmlns="http://www.w3.org/2000/svg" xmlnsXlink="http://www.w3.org/1999/xlink" xml:space="preserve" xmlnsSerif="http://www.serif.com/" style="fill-rule:evenodd;clip-rule:evenodd;stroke-linejoin:round;stroke-miterlimit:2;"><path d="M7428.79,1300.08l-1158.17,-747.125c-140.733,-92.2 -321.316,-99.912 -469.4,-20.046c-299.087,-339.821 -730.958,-534.258 -1183.65,-532.904l-1442.9,0c-452.695,-1.354 -884.566,193.083 -1183.66,532.904c-148.083,-79.854 -328.658,-72.141 -469.392,20.046l-1159.29,747.854c-522.046,345.704 -329.017,1205.6 -320.554,1242.03c11.662,50.15 56.733,85.946 108.225,85.946c19.654,0 38.962,-5.216 55.945,-15.112l148.438,-86.479c-11.367,125.566 -5.55,252.095 17.287,376.091c12.959,69.113 32.355,136.867 57.93,202.371c23.354,59.388 48.883,144.413 117.383,164.7c28.475,8.375 59.146,5.058 85.179,-9.2l128.663,-70.858c79.858,213.162 282.766,646.675 725.854,1074.62c29.646,28.279 72.5,38.179 111.546,25.771c39.02,-12.688 67.962,-45.988 75.087,-86.396l12.175,-69.038c154.721,283.625 378.004,524.067 649.417,699.334l-0,153.854c-1.138,214.541 112.921,413.966 298.425,521.758c184.775,108.225 413.633,111.013 600.991,7.325l662.192,-368.058l661.267,367.787c89.979,50.038 191.25,76.3 294.208,76.3c332.075,0 605.333,-273.25 605.342,-605.329l-0,-153.646c271.408,-175.258 494.691,-415.691 649.425,-699.304l12.171,69.017c7.12,40.408 36.066,73.712 75.083,86.4c39.046,12.4 81.9,2.5 111.546,-25.771c443.087,-427.954 646.025,-861.458 725.887,-1074.62l128.659,70.854c16.416,9.038 34.858,13.779 53.595,13.779c40.938,0 78.688,-22.625 97.988,-58.729c130.429,-243.896 141.958,-504.612 126.196,-689.021l148.408,86.479c16.983,9.9 36.292,15.117 55.95,15.117c51.492,0 96.563,-35.796 108.225,-85.95c8.463,-36.425 201.517,-896.342 -321.671,-1242.75Zm-5896.88,2426.36l-0.016,0.095l-39.555,224.338c-437.525,-487.304 -558.891,-944.792 -560.112,-949.65c-8.417,-33.371 -31.883,-61 -63.45,-74.708c-31.592,-13.521 -67.7,-11.838 -97.9,4.558l-140.429,77.337c-118.709,-322.945 -21.134,-661.404 -20.075,-664.933c3.133,-10.4 4.725,-21.2 4.725,-32.062c-0,-60.955 -50.159,-111.113 -111.113,-111.113c-19.654,0 -38.958,5.217 -55.941,15.113l-213.888,124.62c-26.262,-232.091 -32.258,-666.479 249.725,-853.216l1158.17,-747.125c39.45,-25.454 85.421,-38.996 132.367,-38.996c133.95,-0 244.175,110.225 244.175,244.171c-0,14.221 -1.242,28.408 -3.713,42.408l0,0.029l-482.975,2739.13Zm3703.19,394.191l-0.004,867.604c-0,210.159 -172.934,383.092 -383.096,383.092c-65.163,0 -129.267,-16.625 -186.213,-48.3l-658.554,-366.279l0,-1417.36c18.5,-11.72 34.967,-26.379 48.746,-43.4l287.708,-367.841c27.83,-35.592 42.959,-79.496 42.959,-124.679c-0,-111.038 -91.371,-202.409 -202.409,-202.413l-575.358,0c-111.042,0.004 -202.408,91.375 -202.408,202.413c-0,45.183 15.125,89.087 42.954,124.679l287.675,367.866c13.571,16.755 29.746,31.221 47.908,42.85l0,1418.33l-658.662,366.104c-56.929,31.642 -120.996,48.254 -186.129,48.254c-210.163,0 -383.096,-172.937 -383.096,-383.1l-0,-867.821c-0.984,-355.171 140.333,-696.346 392.171,-946.804l393.041,-393.037c111.892,-112.188 197.484,-247.842 250.567,-397.138l303.225,-856.579l303.221,856.579c53.083,149.288 138.662,284.942 250.541,397.138l393.038,393.037c251.837,250.458 393.154,591.633 392.175,946.804Zm222.217,441.95l-0,-441.95c1.137,-414.116 -163.638,-811.908 -457.275,-1103.92l-393.013,-393.037c-88.508,-88.763 -156.212,-196.079 -198.212,-314.183l-407.963,-1152.45c-16.462,-43.416 -58.296,-72.295 -104.733,-72.295c-46.438,-0 -88.271,28.879 -104.738,72.295l-407.958,1152.45c-41.996,118.095 -109.7,225.408 -198.217,314.154l-393.037,393.066c-293.638,292.013 -458.413,689.805 -457.275,1103.92l-0,441.775c-269.775,-211.983 -471.304,-498.729 -579.384,-824.354l478.23,-2712.17l-0,0.025c21.954,-120.854 -5.409,-245.604 -75.93,-346.179c257.059,-291.737 628.021,-458.642 1016.85,-457.504l1442.9,-0c388.834,-1.138 759.796,165.767 1016.86,457.504c-70.509,100.567 -97.871,225.304 -75.938,346.15l478.271,2712.45c-107.233,326.033 -308.95,612.979 -579.429,824.254l-0.004,0Zm2100.73,-2222.58l-213.846,-124.596c-16.979,-9.891 -36.283,-15.104 -55.933,-15.104c-60.954,0 -111.113,50.159 -111.113,111.113c0,10.85 1.592,21.641 4.717,32.029c1.112,3.746 99.8,340.521 -19.992,664.983l-140.516,-77.362c-16.396,-8.992 -34.8,-13.704 -53.5,-13.704c-50.65,-0 -95.213,34.575 -107.796,83.637c-1.275,5.046 -122.667,462.563 -560.192,949.867l-39.517,-224.104l-0.108,-0.6l-482.921,-2738.86c-18.541,-95.596 23.363,-193.346 105.384,-245.825c80.562,-54.079 186.166,-54.787 267.441,-1.787l1157.07,746.391c282.825,187.284 277.021,621.859 250.825,853.921Z" style="fill:#303030;fill-rule:nonzero;"/><path d="M2639.65,2487.36c165.82,-0.192 302.212,-136.587 302.408,-302.408l-0,-212.925c-0,-0 -276.908,36.35 -594.771,286.287c33.4,133.846 154.408,228.65 292.363,229.046Z" style="fill:#303030;fill-rule:nonzero;"/><path d="M4851.04,1972.03l0,213.333c0,165.596 136.263,301.859 301.854,301.859c138.159,-0 259.525,-94.846 292.913,-228.909c-317.863,-249.937 -594.767,-286.283 -594.767,-286.283Z" style="fill:#303030;fill-rule:nonzero;"/></svg>