<svg width="100%" height="100%" viewBox="0 0 170 344" version="1.1" xmlns="http://www.w3.org/2000/svg" xmlns:xlink="http://www.w3.org/1999/xlink" xml:space="preserve" xmlnsSerif="http://www.serif.com/" style="fill-rule:evenodd;clip-rule:evenodd;stroke-linejoin:round;stroke-miterlimit:2;"><path d="M84.972,0c0,0 -84.972,180.944 -84.972,258.492c0,46.897 38.075,84.972 84.972,84.972c46.898,0 84.972,-38.075 84.972,-84.972c0,-77.548 -84.972,-258.492 -84.972,-258.492Z" style="fill:#45a3f0;"/><clipPath id="_clip1"><path d="M84.972,0c0,0 -84.972,180.944 -84.972,258.492c0,46.897 38.075,84.972 84.972,84.972c46.898,0 84.972,-38.075 84.972,-84.972c0,-77.548 -84.972,-258.492 -84.972,-258.492Z"/></clipPath><g clip-path="url(#_clip1)"><path d="M130.551,0c-0,0 -84.972,180.944 -84.972,258.492c-0,46.897 38.074,84.972 84.972,84.972c46.897,0 84.972,-38.075 84.972,-84.972c-0,-77.548 -84.972,-258.492 -84.972,-258.492Z" style="fill:#79b6e8;"/></g></svg>